# xmcd
#
# Track frame offsets:
#	150
#	36355
#	81110
#	132608
#	169464
#	220910
#	226589
#
# Disc length: 4072 seconds
#
# Revision: 1
# Processed by: cddbd v1.5.1PL0 Copyright (c) Steve Scherf et al.
# Submitted via: audiograbber 1.83.01
#
DISCID=5e0fe607
DTITLE=TEN YEARS AFTER - 1969-12-03 - KULTTUURITALO,HELSINKI
DYEAR=1900
DGENRE=
TTITLE0=Spoonful
TTITLE1=I May Be Wrong
TTITLE2=The Hobbit - Drum Solo
TTITLE3=Good Morning Little Schoolgirl
TTITLE4=No Title
TTITLE5=Scat Thing
TTITLE6=I Can't Keep From Cryin'
EXTD=
EXTT0=
EXTT1=
EXTT2=
EXTT3=
EXTT4=
EXTT5=
EXTT6=
PLAYORDER=
